<svg preserveAspectRatio="none" width="100%" height="100%" overflow="visible" style="display: block;" viewBox="0 0 13.681 11.599" fill="none" xmlns="http://www.w3.org/2000/svg">
<path id="Vector" d="M11.0723 6.33659C11.3917 6.36886 11.6413 6.63804 11.6413 6.96615V8.33333H13.0482C13.3979 8.33337 13.681 8.61638 13.681 8.96615C13.681 9.31591 13.3979 9.59892 13.0482 9.59896H11.6413V10.9661C11.6413 11.2942 11.3917 11.5634 11.0723 11.5957L11.0078 11.599C10.6582 11.5988 10.375 11.3159 10.375 10.9661V9.59896H9.02018C8.67062 9.59876 8.38737 9.31585 8.38737 8.96615C8.38737 8.61644 8.67062 8.33353 9.02018 8.33333H10.375V6.96615C10.375 6.61643 10.6582 6.3335 11.0078 6.33333L11.0723 6.33659ZM10.8177 0C12.3355 0 13.4719 1.3256 13.472 2.84049V3.96615C13.472 4.31589 13.1889 4.59886 12.8392 4.59896C12.4895 4.59896 12.2057 4.31603 12.2057 3.96615V2.84049C12.2057 1.9178 11.5332 1.26562 10.8177 1.26562H2.6543C1.93874 1.26562 1.26568 1.91784 1.26562 2.84049V8.72786C1.26562 9.65057 1.9387 10.3027 2.6543 10.3027H6.43099C6.78056 10.3029 7.06362 10.586 7.0638 10.9355L7.06055 11C7.02826 11.3194 6.75895 11.5689 6.43099 11.569H2.6543C1.13643 11.569 0 10.2428 0 8.72786V2.84049C5.59497e-05 1.3256 1.13648 0 2.6543 0H10.8177Z" fill="var(--fill-0, white)" fill-opacity="0.6"/>
</svg>
