<svg preserveAspectRatio="none" width="100%" height="100%" overflow="visible" style="display: block;" viewBox="0 0 13.3333 13.3333" fill="none" xmlns="http://www.w3.org/2000/svg">
<path id="Vector" d="M6.66741 0L6.74435 0.00443902C6.92226 0.0233267 7.08955 0.101797 7.2171 0.229349C7.34466 0.35696 7.42319 0.524155 7.44202 0.702105L7.44645 0.779048V5.88688H12.5535C12.7598 5.88838 12.9572 5.97114 13.1032 6.11697C13.2491 6.26284 13.3316 6.45971 13.3333 6.66593V6.66741C13.3318 6.87361 13.2497 7.0705 13.104 7.21637L13.047 7.26815C12.9084 7.38183 12.7342 7.44533 12.5535 7.44645H7.44645V12.5558C7.44442 12.7616 7.36256 12.9585 7.2171 13.104C7.07129 13.2498 6.87371 13.3316 6.66741 13.3333H6.66593C6.4593 13.3318 6.26152 13.25 6.11549 13.104C5.98771 12.9762 5.90927 12.8087 5.89058 12.6305L5.88614 12.5535V7.44645H0.778308C0.572213 7.4451 0.375237 7.36293 0.229349 7.2171C0.101614 7.08936 0.023045 6.92223 0.00443902 6.74435L0 6.66741V6.66593C0.00150583 6.45963 0.0834665 6.26211 0.229349 6.11623C0.357039 5.9886 0.524165 5.91001 0.702105 5.89132L0.779048 5.88688H5.88614V0.779048C5.88785 0.5727 5.97015 0.375287 6.11623 0.229349C6.24403 0.101758 6.41112 0.0232146 6.58898 0.00443902L6.66593 0H6.66741Z" fill="var(--fill-0, white)" fill-opacity="0.6"/>
</svg>
