<svg preserveAspectRatio="none" width="100%" height="100%" overflow="visible" style="display: block;" viewBox="0 0 12.6 12.6" fill="none" xmlns="http://www.w3.org/2000/svg">
<g id="Vector">
<path fill-rule="evenodd" clip-rule="evenodd" d="M4.76484 1.79707C5.12613 1.00087 6.27316 1.00099 6.63456 1.79707L6.66796 1.8791L7.69452 4.71504L7.72558 4.77773C7.76293 4.83616 7.81857 4.88138 7.88495 4.90547L10.7209 5.93203C11.5981 6.24976 11.6251 7.46193 10.8023 7.83516L10.7209 7.86797L7.88495 8.89453C7.79635 8.92669 7.7267 8.99637 7.69452 9.08496L6.66796 11.9209C6.34008 12.8263 5.05922 12.8264 4.73144 11.9209L3.70546 9.08496C3.68132 9.01848 3.63569 8.96294 3.57714 8.92559L3.51503 8.89453L0.679094 7.86797C-0.226365 7.54012 -0.226364 6.25988 0.679094 5.93203L3.51503 4.90547L3.57714 4.87441C3.63569 4.83707 3.68132 4.78152 3.70546 4.71504L4.73144 1.8791L4.76484 1.79707ZM4.79706 5.10996C4.64765 5.52264 4.32262 5.84764 3.90995 5.99707L1.41503 6.9L3.90995 7.80293L3.98554 7.8334C4.362 7.9937 4.65694 8.30302 4.79706 8.69004L5.69999 11.1844L6.60292 8.69004C6.75235 8.27734 7.07732 7.95234 7.49003 7.80293L9.98437 6.9L7.49003 5.99707C7.10305 5.85697 6.79313 5.56253 6.6328 5.18613L6.60292 5.10996L5.69999 2.61504L4.79706 5.10996Z" fill="var(--fill-0, #7863F6)"/>
<path d="M10.5 1.11948e-10C10.6753 3.26947e-05 10.8272 0.121879 10.8656 0.292969L11.0051 0.914062C11.0814 1.2535 11.3465 1.51867 11.6859 1.59492L12.307 1.73437C12.4781 1.77279 12.6 1.92463 12.6 2.1C12.6 2.27537 12.4781 2.42721 12.307 2.46562L11.6859 2.60508C11.3465 2.68133 11.0814 2.9465 11.0051 3.28594L10.8656 3.90703C10.8272 4.07812 10.6753 4.19997 10.5 4.2C10.3246 4.2 10.1728 4.07814 10.1344 3.90703L9.99491 3.28594C9.91864 2.94653 9.65345 2.68137 9.31405 2.60508L8.69237 2.46562C8.5214 2.42711 8.39999 2.27528 8.39999 2.1C8.4 1.92472 8.52141 1.77289 8.69237 1.73437L9.31405 1.59492C9.65345 1.51862 9.91865 1.25348 9.99491 0.914062L10.1344 0.292969C10.1728 0.121852 10.3246 -4.26478e-06 10.5 1.11948e-10Z" fill="var(--fill-0, #7863F6)"/>
</g>
</svg>
