<svg preserveAspectRatio="none" width="100%" height="100%" overflow="visible" style="display: block;" viewBox="0 0 15.75 15.75" fill="none" xmlns="http://www.w3.org/2000/svg">
<g id="Vector">
<path fill-rule="evenodd" clip-rule="evenodd" d="M5.95604 2.24634C6.40766 1.25109 7.84145 1.25123 8.2932 2.24634L8.33495 2.34888L9.61815 5.8938L9.65697 5.97217C9.70367 6.0452 9.77321 6.10172 9.85619 6.13183L13.4011 7.41504C14.4976 7.81219 14.5314 9.32741 13.5029 9.79394L13.4011 9.83496L9.85619 11.1182C9.74544 11.1584 9.65837 11.2455 9.61815 11.3562L8.33495 14.9011C7.9251 16.0329 6.32402 16.0331 5.9143 14.9011L4.63183 11.3562C4.60166 11.2731 4.54462 11.2037 4.47143 11.157L4.39379 11.1182L0.848867 9.83496C-0.282957 9.42515 -0.282955 7.82485 0.848867 7.41504L4.39379 6.13183L4.47143 6.09302C4.54461 6.04633 4.60166 5.97689 4.63183 5.8938L5.9143 2.34888L5.95604 2.24634ZM5.99633 6.38745C5.80956 6.9033 5.40327 7.30954 4.88744 7.49634L1.76879 8.625L4.88744 9.75366L4.98192 9.79175C5.4525 9.99212 5.82118 10.3788 5.99633 10.8625L7.12499 13.9805L8.25365 10.8625C8.44044 10.3467 8.84665 9.94043 9.36254 9.75366L12.4805 8.625L9.36254 7.49634C8.87881 7.32122 8.49141 6.95316 8.29101 6.48266L8.25365 6.38745L7.12499 3.2688L5.99633 6.38745Z" fill="var(--fill-0, #8A7CF8)"/>
<path d="M13.125 1.39935e-10C13.3442 4.08684e-05 13.534 0.152349 13.582 0.366211L13.7563 1.14258C13.8517 1.56688 14.1831 1.89833 14.6074 1.99365L15.3838 2.16797C15.5977 2.21598 15.75 2.40578 15.75 2.625C15.75 2.84421 15.5977 3.03401 15.3838 3.08203L14.6074 3.25635C14.1831 3.35167 13.8517 3.68312 13.7563 4.10742L13.582 4.88379C13.534 5.09765 13.3442 5.24996 13.125 5.25C12.9058 5.25 12.716 5.09768 12.668 4.88379L12.4936 4.10742C12.3983 3.68316 12.0668 3.35172 11.6426 3.25635L10.8655 3.08203C10.6518 3.03389 10.5 2.8441 10.5 2.625C10.5 2.4059 10.6518 2.21611 10.8655 2.16797L11.6426 1.99365C12.0668 1.89828 12.3983 1.56685 12.4936 1.14258L12.668 0.366211C12.716 0.152315 12.9058 -5.33098e-06 13.125 1.39935e-10Z" fill="var(--fill-0, #8A7CF8)"/>
</g>
</svg>
