<svg preserveAspectRatio="none" width="100%" height="100%" overflow="visible" style="display: block;" viewBox="0 0 16.5 16.5" fill="none" xmlns="http://www.w3.org/2000/svg">
<path id="Vector" d="M8.25041 0L8.6744 0.0105795C13.0339 0.231443 16.5 3.83685 16.5 8.25041C16.4998 12.8068 12.8068 16.4998 8.25041 16.5C3.69382 16.5 0.000176075 12.8069 0 8.25041C2.25288e-05 3.69457 3.69367 1.93294e-07 8.25041 0ZM7.50007 1.54217C4.12495 1.91534 1.49987 4.77639 1.49985 8.25041C1.50003 11.9785 4.52226 15.0001 8.25041 15.0001C9.0984 15.0001 9.9092 14.8421 10.6568 14.5566L7.5839 8.59383C7.5292 8.48769 7.50013 8.36982 7.50007 8.25041V1.54217ZM9.35719 8.76148L11.9899 13.869C13.8042 12.659 15 10.595 15.0001 8.25041C15.0001 7.98198 14.9818 7.71719 14.9513 7.45694L9.35719 8.76148ZM8.99993 7.30476L14.6128 5.99615C13.7649 3.60301 11.607 1.83036 8.99993 1.54217V7.30476Z" fill="var(--fill-0, white)" fill-opacity="0.6"/>
</svg>
