<svg preserveAspectRatio="none" width="100%" height="100%" overflow="visible" style="display: block;" viewBox="0 0 13.1992 13.1992" fill="none" xmlns="http://www.w3.org/2000/svg">
<path id="Vector" d="M10.8216 2.66667L10.9388 2.66992C11.2109 2.68325 11.4789 2.74262 11.7311 2.84701C12.0196 2.96648 12.2824 3.14176 12.5033 3.36263C12.7241 3.5835 12.8994 3.84633 13.0189 4.13477C13.1382 4.4231 13.1992 4.73216 13.1992 5.04427V10.8216L13.196 10.9388C13.1826 11.2109 13.1233 11.4789 13.0189 11.7311C12.8994 12.0196 12.7241 12.2824 12.5033 12.5033C12.2824 12.7241 12.0196 12.8994 11.7311 13.0189C11.4789 13.1233 11.2109 13.1826 10.9388 13.196L10.8216 13.1992H5.04427C4.73216 13.1992 4.4231 13.1382 4.13477 13.0189C3.84633 12.8994 3.5835 12.7241 3.36263 12.5033C3.14176 12.2824 2.96648 12.0196 2.84701 11.7311C2.74262 11.4789 2.68325 11.2109 2.66992 10.9388L2.66667 10.8216V5.04427C2.66667 4.41362 2.91665 3.80861 3.36263 3.36263C3.80861 2.91665 4.41362 2.66667 5.04427 2.66667H10.8216ZM5.04427 3.86589C4.73185 3.86589 4.43186 3.99002 4.21094 4.21094C3.99002 4.43186 3.86589 4.73185 3.86589 5.04427V10.8236L3.87174 10.9355V10.9368C3.88314 11.052 3.91195 11.1655 3.95638 11.2728C4.01556 11.4155 4.10165 11.5457 4.21094 11.6549C4.32023 11.7642 4.45041 11.8503 4.5931 11.9095C4.73598 11.9687 4.88954 12 5.04427 12H10.8236L10.9355 11.9941H10.9368C11.052 11.9827 11.1655 11.9539 11.2728 11.9095C11.4155 11.8503 11.5457 11.7642 11.6549 11.6549C11.7642 11.5457 11.8503 11.4155 11.9095 11.2728C11.9539 11.1655 11.9827 11.052 11.9941 10.9368V10.9355L12 10.8236V5.04427C12 4.88954 11.9687 4.73598 11.9095 4.5931C11.8503 4.45041 11.7642 4.32023 11.6549 4.21094C11.5457 4.10165 11.4155 4.01556 11.2728 3.95638C11.1923 3.92305 11.1083 3.89839 11.0228 3.88346L10.9368 3.87174H10.9355L10.8236 3.86589H5.04427ZM8.59961 0C8.96187 0 9.28171 0.0954047 9.55404 0.292969C9.81331 0.481176 9.9896 0.733513 10.1237 0.974609C10.2846 1.26413 10.1806 1.62928 9.89128 1.79036C9.60175 1.95129 9.23661 1.84728 9.07552 1.55794C8.98173 1.3893 8.9075 1.30753 8.84896 1.26497C8.80334 1.23191 8.73696 1.19922 8.59961 1.19922H1.93294C1.53098 1.19922 1.19922 1.53098 1.19922 1.93294V8.5957L1.20573 8.69466V8.69727C1.21882 8.79206 1.2512 8.88373 1.29948 8.9668C1.36481 9.07886 1.45912 9.17219 1.57161 9.23633C1.85935 9.40049 1.95966 9.76751 1.79557 10.0553C1.63136 10.3429 1.26433 10.4433 0.976563 10.2793C0.680618 10.1105 0.434612 9.86595 0.263021 9.57161C0.112916 9.31391 0.0248069 9.02502 0.00455729 8.72852L0 8.60091V1.93294C0 0.868239 0.868239 0 1.93294 0H8.59961Z" fill="var(--fill-0, white)" fill-opacity="0.6"/>
</svg>
