<svg preserveAspectRatio="none" width="100%" height="100%" overflow="visible" style="display: block;" viewBox="0 0 13.7995 13.1326" fill="none" xmlns="http://www.w3.org/2000/svg">
<path id="Vector" d="M5.96029 11.0669V10.3169C5.96028 9.67065 5.70561 9.0514 5.2526 8.59551C4.79968 8.13975 4.18586 7.88459 3.54688 7.88457H1.3112C0.96234 7.88449 0.628451 7.74494 0.382813 7.49785C0.13724 7.25074 3.91464e-05 6.91611 0 6.56816V1.31947C3.40865e-05 0.971511 0.137235 0.636897 0.382813 0.389779C0.628452 0.142684 0.962336 0.00314162 1.3112 0.00306H2.80143C3.15042 0.00306 3.48475 0.142588 3.73047 0.389779C3.81895 0.47881 3.8928 0.579713 3.95182 0.687956C4.45852 0.248404 5.10713 0.00310624 5.7819 0.00306H10.9857C11.4917 -0.0285684 11.9553 0.187269 12.3105 0.544727C12.6693 0.905706 12.9144 1.40262 13.0397 1.94056C13.0411 1.94653 13.0424 1.95278 13.0436 1.95879L13.7891 5.70749C13.7963 5.74384 13.7995 5.7811 13.7995 5.81816C13.7995 6.36496 13.5838 6.89005 13.1986 7.2778C12.8131 7.66568 12.2895 7.88457 11.7428 7.88457H10.0742V11.0669C10.0742 11.6136 9.85854 12.1388 9.47331 12.5265C9.08789 12.9143 8.56417 13.1326 8.01758 13.1326C7.47096 13.1326 6.9473 12.9143 6.56185 12.5265C6.17656 12.1388 5.96034 11.6136 5.96029 11.0669ZM7.09375 11.0669C7.0938 11.3153 7.19234 11.553 7.36589 11.7277C7.53934 11.9021 7.77388 11.9998 8.01758 11.9998C8.26129 11.9998 8.49584 11.9022 8.66927 11.7277C8.84282 11.553 8.9407 11.3153 8.94076 11.0669V7.31751C8.9409 7.00468 9.19494 6.75111 9.50781 6.75111H11.7428C11.9866 6.75111 12.2211 6.65353 12.3945 6.47897C12.5573 6.31515 12.6527 6.09603 12.6641 5.86439L11.9342 2.19121C11.845 1.81264 11.6842 1.52237 11.5065 1.34355C11.3327 1.16873 11.1712 1.12391 11.0462 1.13457C11.0302 1.13594 11.0141 1.13652 10.998 1.13652H5.7819C5.34059 1.13657 4.91667 1.31296 4.60352 1.62806C4.29019 1.94335 4.11328 2.37206 4.11328 2.81947V6.79733C4.84487 6.91632 5.52594 7.26336 6.05599 7.79668C6.72079 8.46565 7.09374 9.37231 7.09375 10.3169V11.0669ZM1.13281 6.56816C1.13285 6.61781 1.15302 6.66499 1.18685 6.69902C1.22048 6.73273 1.26525 6.75103 1.3112 6.75111H2.97982V1.31947C2.97978 1.26981 2.96026 1.22265 2.92643 1.18861C2.89272 1.1548 2.84751 1.13652 2.80143 1.13652H1.3112C1.26525 1.1366 1.22048 1.1549 1.18685 1.18861C1.15302 1.22265 1.13285 1.26981 1.13281 1.31947V6.56816Z" fill="var(--fill-0, white)" fill-opacity="0.6"/>
</svg>
