<svg preserveAspectRatio="none" width="100%" height="100%" overflow="visible" style="display: block;" viewBox="0 0 12.75 15" fill="none" xmlns="http://www.w3.org/2000/svg">
<g id="Vector">
<path d="M6.375 10.5C6.78921 10.5 7.125 10.8358 7.125 11.25C7.125 11.6642 6.78921 12 6.375 12H3.375C2.96079 12 2.625 11.6642 2.625 11.25C2.625 10.8358 2.96079 10.5 3.375 10.5H6.375Z" fill="var(--fill-0, white)" fill-opacity="0.6"/>
<path d="M9.375 7.5C9.78921 7.5 10.125 7.83578 10.125 8.25C10.125 8.66421 9.78921 9 9.375 9H3.375C2.96079 9 2.625 8.66421 2.625 8.25C2.625 7.83578 2.96079 7.5 3.375 7.5H9.375Z" fill="var(--fill-0, white)" fill-opacity="0.6"/>
<path d="M7.875 4.5C8.28921 4.5 8.625 4.83579 8.625 5.25C8.625 5.66421 8.28921 6 7.875 6H3.375C2.96079 6 2.625 5.66421 2.625 5.25C2.625 4.83579 2.96079 4.5 3.375 4.5H7.875Z" fill="var(--fill-0, white)" fill-opacity="0.6"/>
<path fill-rule="evenodd" clip-rule="evenodd" d="M7.98999 0C8.41106 7.27853e-05 8.82021 0.142132 9.15088 0.402832L12.0359 2.67773C12.4867 3.03328 12.75 3.57571 12.75 4.1499V13.125C12.75 14.1605 11.9105 15 10.875 15H1.875C0.839467 15 0 14.1605 0 13.125V1.875C0 0.839466 0.839466 0 1.875 0H7.98999ZM1.875 1.5C1.66789 1.5 1.5 1.66789 1.5 1.875V13.125C1.5 13.3321 1.66789 13.5 1.875 13.5H10.875C11.0821 13.5 11.25 13.3321 11.25 13.125V4.1499C11.25 4.03508 11.1973 3.92658 11.1072 3.85547L8.22217 1.58057C8.1561 1.52848 8.07411 1.50007 7.98999 1.5H1.875Z" fill="var(--fill-0, white)" fill-opacity="0.6"/>
</g>
</svg>
