<svg preserveAspectRatio="none" width="100%" height="100%" overflow="visible" style="display: block;" viewBox="0 0 14.5685 14.5685" fill="none" xmlns="http://www.w3.org/2000/svg">
<g id="Vector">
<path d="M5.625 0.318504C6.03921 0.318504 6.375 0.654291 6.375 1.0685C6.37494 1.48267 6.03918 1.8185 5.625 1.8185H1.875C1.66789 1.8185 1.5 1.9864 1.5 2.1935V12.6935C1.50006 12.9006 1.66793 13.0685 1.875 13.0685H12.375C12.5821 13.0685 12.7499 12.9006 12.75 12.6935V8.9435C12.75 8.52929 13.0858 8.1935 13.5 8.1935C13.9142 8.1935 14.25 8.52929 14.25 8.9435V12.6935C14.2499 13.729 13.4105 14.5685 12.375 14.5685H1.875C0.839505 14.5685 6.18369e-05 13.729 0 12.6935V2.1935C1.6912e-07 1.15797 0.839466 0.318504 1.875 0.318504H5.625Z" fill="var(--fill-0, #8A7CF8)"/>
<path fill-rule="evenodd" clip-rule="evenodd" d="M11.0017 0.384422C11.5143 -0.128142 12.3458 -0.12814 12.8584 0.384422L14.1841 1.71011C14.6966 2.22267 14.6966 3.05423 14.1841 3.5668L8.44116 9.30898C8.19504 9.55502 7.8612 9.6935 7.51318 9.6935H5.8125L5.71655 9.68838C5.27548 9.64351 4.92504 9.29301 4.88013 8.85195L4.875 8.756V7.05532C4.875 6.7073 5.01348 6.37347 5.25952 6.12734L11.0017 0.384422ZM6.375 7.13296V8.1935H7.43555L12.991 2.63882L11.9297 1.57754L6.375 7.13296Z" fill="var(--fill-0, #8A7CF8)"/>
</g>
</svg>
