<svg preserveAspectRatio="none" width="100%" height="100%" overflow="visible" style="display: block;" viewBox="0 0 12.2607 12.2561" fill="none" xmlns="http://www.w3.org/2000/svg">
<path id="Vector" d="M0.458787 11.802C0.279066 11.6142 0.14618 11.3866 0.0708878 11.1378C-0.00440393 10.889 -0.0199952 10.626 0.025437 10.37L0.341436 8.16001C0.428176 7.68171 0.650056 7.23824 0.9808 6.88201L5.88677 1.976C5.91985 1.9313 5.95941 1.89174 6.00412 1.85865L6.76677 1.096C8.2281 -0.365333 9.71144 -0.365333 11.1728 1.096C11.5249 1.39343 11.8055 1.76645 11.9937 2.18727C12.1818 2.60809 12.2726 3.06589 12.2594 3.52666C12.1413 4.29033 11.7563 4.98738 11.1728 5.49399L10.3728 6.294C10.3551 6.31453 10.336 6.33369 10.3154 6.35133L5.3888 11.278C5.03264 11.6085 4.58946 11.8303 4.11146 11.9173L1.90145 12.2327C1.80954 12.2511 1.71579 12.2587 1.62212 12.2553C1.18983 12.263 0.771903 12.1002 0.458787 11.802ZM1.7581 7.66001C1.59462 7.84683 1.48008 8.07131 1.42477 8.31333L1.10946 10.5233C1.09005 10.6105 1.0912 10.7011 1.11284 10.7877C1.13448 10.8744 1.17598 10.9548 1.2341 11.0227C1.30186 11.0807 1.38221 11.1222 1.46876 11.1438C1.5553 11.1654 1.6457 11.1667 1.73279 11.1474L3.94345 10.8314C4.18612 10.7779 4.41104 10.6631 4.59677 10.498L8.95077 6.14401C7.69757 5.56221 6.69097 4.55535 6.10946 3.30201L1.7581 7.66001ZM9.8001 5.30267L10.3868 4.716C10.7828 4.38297 11.0525 3.92404 11.1508 3.41599C11.1444 3.11749 11.0728 2.82404 10.9408 2.55625C10.8088 2.28845 10.6196 2.05285 10.3868 1.86602C9.21143 0.691353 8.4041 1.02199 7.54477 1.87399L6.9548 2.464C7.1908 3.11767 7.56807 3.71123 8.05978 4.20236C8.55149 4.69349 9.1455 5.07011 9.79944 5.30535L9.8001 5.30267Z" fill="var(--fill-0, #040405)" fill-opacity="0.56"/>
</svg>
