<svg preserveAspectRatio="none" width="100%" height="100%" overflow="visible" style="display: block;" viewBox="0 0 12.5029 12.5098" fill="none" xmlns="http://www.w3.org/2000/svg">
<path id="Vector" d="M0.758789 5.48242C0.321289 5.48242 0 5.16113 0 4.7373V1.2168C0 0.444336 0.451172 0 1.22363 0H4.80566C5.23633 0 5.55762 0.314453 5.55762 0.751953C5.55762 1.18262 5.23633 1.49707 4.80566 1.49707H4.32715L2.37891 1.36035L3.88281 2.78223L5.70117 4.60059C5.84473 4.74414 5.92676 4.92871 5.92676 5.14062C5.92676 5.59863 5.59863 5.91992 5.13379 5.91992C4.92871 5.91992 4.74414 5.84473 4.60059 5.70117L2.7959 3.88281L1.36719 2.37891L1.50391 4.30664V4.7373C1.50391 5.16797 1.18945 5.48242 0.758789 5.48242ZM7.69727 12.5098C7.2666 12.5098 6.95215 12.1885 6.95215 11.7578C6.95215 11.3203 7.2666 11.0059 7.69727 11.0059H8.17578L10.124 11.1426L8.62012 9.7207L6.80176 7.90918C6.6582 7.76562 6.57617 7.57422 6.57617 7.36914C6.57617 6.9043 6.91113 6.58984 7.36914 6.58984C7.57422 6.58984 7.75879 6.6582 7.90234 6.80859L9.70703 8.62695L11.1357 10.1309L10.999 8.19629V7.77246C10.999 7.33496 11.3135 7.02051 11.7441 7.02051C12.1816 7.02051 12.5029 7.3418 12.5029 7.77246V11.2861C12.5029 12.0586 12.0518 12.5098 11.2793 12.5098H7.69727Z" fill="var(--fill-0, white)" fill-opacity="0.6"/>
</svg>
