<svg preserveAspectRatio="none" width="100%" height="100%" overflow="visible" style="display: block;" viewBox="0 0 16.4171 14.7493" fill="none" xmlns="http://www.w3.org/2000/svg">
<path id="Vector" d="M0 2.18913C0.000184478 1.02793 0.888504 4.80811e-05 2.08822 0H5.54118C6.44291 6.80019e-05 7.20971 0.597723 7.50244 1.43555L7.8654 2.4764C7.97675 2.79481 8.24072 2.96224 8.48958 2.96224H13.1307C14.3305 2.96227 15.2188 3.99094 15.2189 5.15218V6.1792C16.0547 6.61085 16.5801 7.54094 16.3713 8.5498L15.2043 14.1846C15.1362 14.5134 14.8468 14.7493 14.5109 14.7493H2.08822C0.888504 14.7493 0.000184478 13.7214 0 12.5602V2.18913ZM5.79915 7.34212C5.38747 7.34226 5.06137 7.62123 4.98942 7.96875L3.87858 13.3333H13.9347L14.9837 8.26253C15.0764 7.81511 14.7235 7.34222 14.174 7.34212H5.79915ZM1.41602 12.5602C1.41619 13.035 1.76357 13.3333 2.08822 13.3333H2.43245L3.60189 7.68148C3.81665 6.64422 4.74897 5.92543 5.79915 5.92529H13.8029V5.15218C13.8028 4.67734 13.4554 4.3791 13.1307 4.37907H8.48958C7.58785 4.37907 6.82112 3.78128 6.52832 2.94352L6.16455 1.90267C6.05321 1.58435 5.78998 1.41608 5.54118 1.41602H2.08822C1.76357 1.41607 1.41619 1.71435 1.41602 2.18913V12.5602Z" fill="var(--fill-0, white)" fill-opacity="0.6"/>
</svg>
