<svg preserveAspectRatio="none" width="100%" height="100%" overflow="visible" style="display: block;" viewBox="0 0 13.7995 13.1326" fill="none" xmlns="http://www.w3.org/2000/svg">
<path id="Vector" d="M8.94076 2.06576C8.9407 1.81727 8.84282 1.57958 8.66927 1.40495C8.49584 1.23043 8.2613 1.13286 8.01758 1.13281C7.77388 1.13281 7.53934 1.23051 7.36589 1.40495C7.19234 1.57958 7.0938 1.81727 7.09375 2.06576V2.81576C7.09374 3.76031 6.72079 4.66696 6.05599 5.33594C5.52596 5.86923 4.84483 6.21563 4.11328 6.33464V10.3132C4.11328 10.7606 4.29019 11.1893 4.60352 11.5046C4.91667 11.8197 5.34059 11.996 5.7819 11.9961H10.998L11.0462 11.998C11.1712 12.0087 11.3327 11.9639 11.5065 11.7891C11.6843 11.6102 11.845 11.3196 11.9342 10.9408L12.6641 7.26758C12.6526 7.03618 12.5572 6.81731 12.3945 6.65365C12.2211 6.47908 11.9866 6.38151 11.7428 6.38151H9.50781C9.19494 6.38151 8.94091 6.12794 8.94076 5.8151V2.06576ZM1.13281 11.8132C1.13285 11.8628 1.15302 11.91 1.18685 11.944C1.22048 11.9777 1.26525 11.996 1.3112 11.9961H2.80143C2.84751 11.9961 2.89272 11.9778 2.92643 11.944C2.96026 11.91 2.97978 11.8628 2.97982 11.8132V6.38151H1.3112C1.26525 6.38159 1.22048 6.39989 1.18685 6.43359C1.15302 6.46763 1.13285 6.5148 1.13281 6.56445V11.8132ZM10.0742 5.24805H11.7428C12.2895 5.24805 12.8131 5.46694 13.1986 5.85482C13.5838 6.24257 13.7995 6.76766 13.7995 7.31445C13.7995 7.35152 13.7963 7.38878 13.7891 7.42513L13.0436 11.1738C13.0424 11.1798 13.0411 11.1861 13.0397 11.1921C12.9144 11.73 12.6693 12.2269 12.3105 12.5879C11.9553 12.9453 11.4917 13.1612 10.9857 13.1296H5.7819C5.10698 13.1295 4.45857 12.8837 3.95182 12.444C3.89276 12.5524 3.81908 12.6537 3.73047 12.7428C3.48475 12.99 3.15042 13.1296 2.80143 13.1296H1.3112C0.962337 13.1295 0.628453 12.9899 0.382813 12.7428C0.137235 12.4957 3.41284e-05 12.1611 0 11.8132V6.56445C3.88119e-05 6.2165 0.137239 5.88188 0.382813 5.63477C0.628451 5.38768 0.96234 5.24813 1.3112 5.24805H3.54688C4.18586 5.24803 4.79968 4.99287 5.2526 4.53711C5.70561 4.08122 5.96028 3.46197 5.96029 2.81576V2.06576C5.96034 1.51897 6.17656 0.993832 6.56185 0.60612C6.9473 0.218301 7.47096 0 8.01758 0C8.56417 5.10071e-05 9.08789 0.218286 9.47331 0.60612C9.85854 0.993822 10.0742 1.51902 10.0742 2.06576V5.24805Z" fill="var(--fill-0, white)" fill-opacity="0.6"/>
</svg>
