<svg preserveAspectRatio="none" width="100%" height="100%" overflow="visible" style="display: block;" viewBox="0 0 5.33334 256" fill="none" xmlns="http://www.w3.org/2000/svg">
<g id="Line">
<path id="Line 1" d="M2.66668 3.33333C1.19392 3.33333 1.01376e-05 4.52724 1.00732e-05 6C1.00088e-05 7.47276 1.19392 8.66667 2.66668 8.66667C4.13944 8.66667 5.33334 7.47276 5.33334 6C5.33334 4.52724 4.13944 3.33333 2.66668 3.33333ZM2.66667 233.333C1.19391 233.333 8.39414e-08 234.527 1.95648e-08 236C-4.48117e-08 237.473 1.19391 238.667 2.66667 238.667C4.13943 238.667 5.33333 237.473 5.33333 236C5.33333 234.527 4.13943 233.333 2.66667 233.333ZM2.66668 6L2.16668 6L2.16667 236L2.66667 236L3.16667 236L3.16668 6L2.66668 6Z" fill="var(--stroke-0, white)" fill-opacity="0.12"/>
</g>
</svg>
