<svg preserveAspectRatio="none" width="100%" height="100%" overflow="visible" style="display: block;" viewBox="0 0 11.8664 11.8669" fill="none" xmlns="http://www.w3.org/2000/svg">
<path id="Vector" d="M0.552984 5.95886C0.903868 5.91004 1.22922 6.15558 1.27824 6.50704C1.42065 7.53325 1.89627 8.48504 2.63111 9.21407C3.36592 9.94281 4.31926 10.4102 5.34465 10.5428C6.37005 10.6753 7.41087 10.4658 8.30624 9.94779C8.86754 9.62295 9.35072 9.18598 9.73202 8.67045L9.8108 8.56433H8.57837C8.24727 8.56415 7.97475 8.3124 7.94035 7.99011L7.93645 7.92175C7.93645 7.56697 8.22392 7.27807 8.57837 7.27787H11.2242C11.5786 7.27814 11.8661 7.56699 11.8661 7.92175V10.5715L11.8622 10.6372C11.8292 10.9611 11.5562 11.2145 11.2242 11.2147C10.893 11.2144 10.6204 10.9622 10.5862 10.6398L10.5816 10.5676V9.66915L10.4651 9.80391C10.0344 10.2998 9.52462 10.7271 8.94882 11.0604C7.80965 11.7196 6.48534 11.9861 5.18059 11.8176C3.87567 11.6489 2.66169 11.0542 1.72681 10.1268C0.792175 9.19946 0.187276 7.98942 0.00610939 6.68412C-0.0422975 6.33295 0.202214 6.00795 0.552984 5.95886ZM2.91627 0.805865C4.05553 0.146529 5.38032 -0.11917 6.68515 0.0493549C7.99001 0.218089 9.20405 0.812119 10.1389 1.73946C11.0735 2.66675 11.6791 3.87633 11.8603 5.18152C11.909 5.53282 11.6636 5.85757 11.3127 5.90678C10.9618 5.95559 10.6371 5.71074 10.5881 5.35925C10.4457 4.33307 9.97011 3.38189 9.23528 2.65287C8.50044 1.92397 7.54655 1.45673 6.52108 1.32409C5.49576 1.19168 4.45474 1.4006 3.55949 1.9185C2.99792 2.24353 2.51389 2.68049 2.13241 3.19649L2.05364 3.30261H3.28671C3.64126 3.30261 3.92929 3.59153 3.92929 3.94649C3.92878 4.30096 3.64102 4.58842 3.28671 4.58842H0.641526C0.287368 4.58816 0.000754582 4.30074 0.000250016 3.94649V1.2961C0.000258314 0.941361 0.287128 0.652473 0.641526 0.652219C0.996054 0.652255 1.2841 0.941173 1.2841 1.2961V2.19454L1.40064 2.06042C1.83112 1.56516 2.3409 1.13892 2.91627 0.805865Z" fill="var(--fill-0, white)" fill-opacity="0.6"/>
</svg>
