<svg preserveAspectRatio="none" width="100%" height="100%" overflow="visible" style="display: block;" viewBox="0 0 15.6405 15.6405" fill="none" xmlns="http://www.w3.org/2000/svg">
<path id="Vector" d="M14.9577 7.14116C15.3029 7.14116 15.5827 7.42098 15.5827 7.76616V7.84917C15.5827 12.1524 12.0946 15.6405 7.79134 15.6405C3.48812 15.6405 0 12.1524 0 7.84917C9.93411e-08 3.54595 3.48812 0.0578284 7.79134 0.0578283H7.87435C8.21953 0.0578283 8.49935 0.33765 8.49935 0.682828V0.848844C8.49935 1.19402 8.21953 1.47384 7.87435 1.47384H7.79134C4.27053 1.47384 1.41602 4.32835 1.41602 7.84917C1.41602 11.37 4.27053 14.2245 7.79134 14.2245C11.3122 14.2245 14.1667 11.37 14.1667 7.84917V7.76616C14.1667 7.42098 14.4465 7.14116 14.7917 7.14116H14.9577ZM11.416 7.14116C11.7612 7.14116 12.041 7.42098 12.041 7.76616V7.84917C12.041 10.1964 10.1386 12.0988 7.79134 12.0988C5.44413 12.0988 3.54167 10.1964 3.54167 7.84917C3.54167 5.50196 5.44413 3.5995 7.79134 3.5995H7.87435C8.21953 3.5995 8.49935 3.87932 8.49935 4.22449V4.39051C8.49935 4.73569 8.21953 5.01551 7.87435 5.01551H7.79134C6.22653 5.01551 4.95768 6.28436 4.95768 7.84917C4.95768 9.41398 6.22653 10.6828 7.79134 10.6828C9.35615 10.6828 10.625 9.41398 10.625 7.84917V7.76616C10.625 7.42098 10.9048 7.14116 11.25 7.14116H11.416ZM12.8735 0.00818639C13.0721 0.0407363 13.2431 0.167255 13.3325 0.347542L13.383 0.449267L13.9852 1.65369L15.1921 2.25754H15.1912L15.293 2.30799C15.4733 2.39742 15.5998 2.56838 15.6323 2.76698C15.6648 2.96552 15.5996 3.16752 15.4574 3.30978L13.2259 5.54123C13.1087 5.65844 12.9498 5.72433 12.784 5.72433H10.918L8.29183 8.34966L8.23649 8.40581C8.11963 8.52429 7.96019 8.59152 7.79378 8.59217C7.62728 8.59275 7.46719 8.5268 7.34945 8.40907L7.23145 8.29106C7.11371 8.17333 7.04777 8.01323 7.04834 7.84673C7.04899 7.68033 7.11622 7.52088 7.2347 7.40402L7.29411 7.34543L9.91618 4.72254V2.85649C9.91618 2.69073 9.98207 2.53181 10.0993 2.4146L12.3307 0.183154L12.3869 0.133512C12.5236 0.0262299 12.6998 -0.0202285 12.8735 0.00818639ZM11.1662 3.11528V4.47433H12.5252L13.96 3.03879L13.2397 2.67908C13.1189 2.61859 13.021 2.51998 12.9606 2.39914L12.6009 1.67974L11.1662 3.11528Z" fill="var(--fill-0, white)" fill-opacity="0.6"/>
</svg>
